<svg width="24" height="25" viewBox="0 0 24 25" fill="none" xmlns="http://www.w3.org/2000/svg">
<path d="M12 0.142578C11.8035 0.142578 11.6074 0.147248 11.4113 0.156946C11.2152 0.166644 11.0194 0.181012 10.824 0.200409C10.6286 0.219446 10.4335 0.243512 10.2392 0.272248C10.0449 0.301342 9.85165 0.334748 9.65912 0.373182C9.46624 0.411256 9.27478 0.45436 9.08441 0.502133C8.89368 0.549906 8.70474 0.602348 8.51652 0.659101C8.32866 0.716213 8.14224 0.777636 7.95726 0.844087C7.77263 0.910179 7.58944 0.98094 7.40805 1.05601C7.22629 1.13108 7.04705 1.21047 6.86925 1.29452C6.69181 1.37857 6.51652 1.46693 6.34339 1.55924C6.17026 1.65192 5.99928 1.7489 5.83082 1.84983C5.66236 1.95077 5.49641 2.05565 5.33333 2.16485C5.1699 2.27404 5.00934 2.38683 4.85165 2.50393C4.69397 2.62103 4.53915 2.74172 4.38721 2.86636C4.23563 2.991 4.08693 3.11923 3.94145 3.25106C3.79598 3.38288 3.65374 3.5183 3.51473 3.65731C3.37608 3.79595 3.24066 3.9382 3.10884 4.08367C2.97665 4.22914 2.84842 4.37785 2.72414 4.52979C2.5995 4.68173 2.47845 4.83618 2.36171 4.99423C2.24461 5.15192 2.13147 5.31248 2.02263 5.47555C1.91343 5.63899 1.80819 5.80493 1.70726 5.9734C1.60632 6.14186 1.5097 6.31248 1.41703 6.48561C1.32435 6.65874 1.23635 6.83439 1.1523 7.01183C1.06825 7.18927 0.988865 7.36887 0.913434 7.55026C0.838362 7.73166 0.767601 7.91485 0.701509 8.09983C0.635417 8.28482 0.573635 8.47124 0.516882 8.6591C0.45977 8.84696 0.407328 9.03626 0.359555 9.22663C0.312141 9.41736 0.269037 9.60881 0.230603 9.80134C0.192529 9.99387 0.158764 10.1875 0.130029 10.3818C0.101293 10.5761 0.077227 10.7708 0.0578305 10.9662C0.038793 11.1616 0.0240661 11.3574 0.0143678 11.5535C0.00502878 11.75 0 11.9461 0 12.1426C0 12.3387 0.00502878 12.5352 0.0143678 12.7313C0.0240661 12.9274 0.038793 13.1232 0.0578305 13.3186C0.077227 13.514 0.101293 13.709 0.130029 13.9034C0.158764 14.0977 0.192529 14.2909 0.230603 14.4835C0.269037 14.6763 0.312141 14.8678 0.359555 15.0582C0.407328 15.2489 0.45977 15.4378 0.516882 15.6261C0.573635 15.8139 0.635417 16.0003 0.701509 16.1853C0.767601 16.3699 0.838362 16.5531 0.913434 16.7345C0.988865 16.9163 1.06825 17.0955 1.1523 17.273C1.23635 17.4508 1.32435 17.6261 1.41703 17.7992C1.5097 17.9723 1.60632 18.1433 1.70726 18.3118C1.80819 18.4802 1.91343 18.6462 2.02263 18.8092C2.13147 18.9727 2.24461 19.1332 2.36171 19.2909C2.47845 19.4486 2.5995 19.6034 2.72414 19.7554C2.84842 19.9069 2.97665 20.0557 3.10884 20.2011C3.24066 20.3466 3.37608 20.4888 3.51473 20.6279C3.65374 20.7665 3.79598 20.9019 3.94145 21.0337C4.08693 21.1659 4.23563 21.2942 4.38721 21.4184C4.53915 21.5431 4.69397 21.6641 4.85165 21.7809C5.00934 21.898 5.1699 22.0111 5.33333 22.1199C5.49641 22.2291 5.66236 22.3344 5.83082 22.4353C5.99928 22.5363 6.17026 22.6329 6.34339 22.7256C6.51652 22.8182 6.69181 22.9062 6.86925 22.9903C7.04705 23.0743 7.22629 23.1537 7.40805 23.2291C7.58944 23.3042 7.77263 23.375 7.95726 23.4411C8.14224 23.5072 8.32866 23.5686 8.51652 23.6257C8.70474 23.6828 8.89368 23.7353 9.08441 23.783C9.27478 23.8304 9.46624 23.8735 9.65912 23.912C9.85165 23.95 10.0449 23.9838 10.2392 24.0125C10.4335 24.0413 10.6286 24.0654 10.824 24.0847C11.0194 24.1038 11.2152 24.1185 11.4113 24.1279C11.6074 24.1375 11.8035 24.1426 12 24.1426C12.1965 24.1426 12.3926 24.1375 12.5887 24.1279C12.7852 24.1185 12.981 24.1038 13.1764 24.0847C13.3718 24.0654 13.5665 24.0413 13.7608 24.0125C13.9551 23.9838 14.1487 23.95 14.3412 23.912C14.5338 23.8735 14.7252 23.8304 14.9159 23.783C15.1063 23.7353 15.2956 23.6828 15.4835 23.6257C15.6713 23.5686 15.8578 23.5072 16.0427 23.4411C16.2277 23.375 16.4109 23.3042 16.5923 23.2291C16.7737 23.1537 16.9533 23.0743 17.1307 22.9903C17.3082 22.9062 17.4835 22.8182 17.657 22.7256C17.8301 22.6329 18.0007 22.5363 18.1692 22.4353C18.3376 22.3344 18.5036 22.2291 18.667 22.1199C18.8301 22.0111 18.9907 21.898 19.1483 21.7809C19.3064 21.6641 19.4608 21.5431 19.6128 21.4184C19.7647 21.2942 19.9134 21.1659 20.0589 21.0337C20.2044 20.9019 20.3466 20.7665 20.4853 20.6279C20.6243 20.4888 20.7597 20.3466 20.8915 20.2011C21.0233 20.0557 21.1516 19.9069 21.2762 19.7554C21.4009 19.6034 21.5216 19.4486 21.6386 19.2909C21.7554 19.1332 21.8685 18.9727 21.9777 18.8092C22.0869 18.6462 22.1918 18.4802 22.2927 18.3118C22.3937 18.1433 22.4907 17.9723 22.583 17.7992C22.6756 17.6261 22.764 17.4508 22.8481 17.273C22.9318 17.0955 23.0115 16.9163 23.0866 16.7345C23.1616 16.5531 23.2324 16.3699 23.2985 16.1853C23.3649 16.0003 23.4264 15.8139 23.4835 15.6261C23.5402 15.4378 23.5927 15.2489 23.6404 15.0582C23.6882 14.8678 23.7313 14.6763 23.7694 14.4835C23.8078 14.2909 23.8412 14.0977 23.8703 13.9034C23.8991 13.709 23.9231 13.514 23.9422 13.3186C23.9616 13.1232 23.9759 12.9274 23.9856 12.7313C23.9953 12.5352 24 12.3387 24 12.1426C24 11.9461 23.995 11.75 23.9849 11.5539C23.9752 11.3577 23.9605 11.162 23.9411 10.9666C23.9217 10.7712 23.8973 10.5765 23.8685 10.3825C23.8394 10.1882 23.8057 9.99495 23.7672 9.80242C23.7288 9.60989 23.6857 9.41844 23.6379 9.22807C23.5898 9.03769 23.5374 8.8484 23.4802 8.66054C23.4231 8.47268 23.3614 8.28626 23.2953 8.10163C23.2292 7.91664 23.1584 7.73381 23.083 7.55242C23.0079 7.37103 22.9282 7.19179 22.8441 7.01435C22.7601 6.8369 22.6717 6.66162 22.579 6.48848C22.4867 6.31535 22.3897 6.14437 22.2888 5.97627C22.1879 5.80781 22.0826 5.64186 21.9734 5.47879C21.8646 5.31571 21.7514 5.15515 21.6343 4.99746C21.5176 4.83978 21.3966 4.68496 21.2719 4.53338C21.1476 4.3818 21.0194 4.2331 20.8876 4.08762C20.7557 3.94215 20.6203 3.79991 20.4813 3.66126C20.3427 3.52225 20.2004 3.38683 20.055 3.25501C19.9095 3.12318 19.7608 2.99495 19.6092 2.87031C19.4573 2.74603 19.3028 2.62498 19.1451 2.50824C18.9874 2.39114 18.8269 2.27799 18.6638 2.16916C18.5004 2.05996 18.3348 1.95472 18.1663 1.85379C17.9978 1.75285 17.8272 1.65587 17.6541 1.56356C17.481 1.47088 17.3057 1.38252 17.1282 1.29847C16.9508 1.21442 16.7716 1.13468 16.5902 1.0596C16.4088 0.984173 16.2259 0.913411 16.0409 0.847319C15.8563 0.780868 15.6699 0.719446 15.482 0.662334C15.2942 0.605222 15.1049 0.552779 14.9145 0.504647C14.7241 0.456874 14.5327 0.413771 14.3402 0.375337C14.1476 0.336903 13.9544 0.303138 13.7601 0.274044C13.5661 0.244949 13.3714 0.220883 13.176 0.201486C12.9806 0.18209 12.7848 0.167363 12.5887 0.157664C12.3926 0.147607 12.1965 0.142578 12 0.142578ZM12 22.2223C11.8351 22.2223 11.6703 22.2184 11.5054 22.2105C11.3409 22.2022 11.1764 22.19 11.0122 22.1738C10.8481 22.1577 10.6843 22.1375 10.5212 22.1135C10.3578 22.0891 10.1954 22.061 10.0334 22.0287C9.87177 21.9967 9.71085 21.9605 9.55101 21.9202C9.3908 21.8804 9.23204 21.8362 9.07399 21.7884C8.91631 21.7406 8.7597 21.6889 8.60417 21.6332C8.44899 21.5776 8.2949 21.5183 8.1426 21.4551C7.9903 21.3922 7.83944 21.3251 7.69037 21.2546C7.54131 21.1842 7.39404 21.1099 7.24856 21.0323C7.10309 20.9544 6.95941 20.8732 6.81789 20.7884C6.67636 20.7036 6.537 20.6153 6.39978 20.5237C6.26293 20.4321 6.12787 20.3369 5.99533 20.2388C5.86279 20.1404 5.73276 20.0391 5.60524 19.9342C5.47773 19.8297 5.35309 19.722 5.2306 19.6113C5.10848 19.5003 4.98922 19.3868 4.87249 19.2701C4.75575 19.1534 4.64224 19.0341 4.53125 18.9116C4.42062 18.7895 4.31286 18.6648 4.20797 18.5373C4.10345 18.4098 4.00216 18.2798 3.90374 18.1472C3.80532 18.0147 3.71049 17.8796 3.61889 17.7428C3.5273 17.6056 3.43894 17.4662 3.35417 17.3247C3.2694 17.1832 3.18822 17.0395 3.11027 16.894C3.03269 16.7485 2.95833 16.6013 2.88793 16.4522C2.81717 16.3031 2.75036 16.1523 2.6875 16C2.62428 15.8477 2.56501 15.6936 2.50934 15.5384C2.45366 15.3829 2.40194 15.2263 2.35417 15.0686C2.30639 14.9105 2.26221 14.7518 2.22234 14.5916C2.18211 14.4317 2.14583 14.2708 2.11386 14.1088C2.08154 13.9472 2.05352 13.7848 2.02909 13.6214C2.00503 13.4583 1.98491 13.2945 1.96875 13.1304C1.95259 12.9662 1.94037 12.8017 1.93211 12.6372C1.92421 12.4723 1.92026 12.3074 1.92026 12.1426C1.92026 11.9773 1.92421 11.8125 1.93211 11.648C1.94037 11.4831 1.95259 11.3186 1.96875 11.1544C1.98491 10.9903 2.00503 10.8265 2.02909 10.6634C2.05352 10.5003 2.08154 10.3376 2.11386 10.176C2.14583 10.0143 2.18211 9.85343 2.22234 9.69322C2.26221 9.53338 2.30639 9.37426 2.35417 9.21657C2.40194 9.05853 2.45366 8.90192 2.50934 8.74675C2.56501 8.59121 2.62428 8.43748 2.6875 8.28518C2.75036 8.13252 2.81717 7.98202 2.88793 7.83259C2.95833 7.68353 3.03269 7.53626 3.11027 7.39078C3.18822 7.24531 3.2694 7.10199 3.35417 6.96047C3.43894 6.81894 3.5273 6.67957 3.61889 6.54236C3.71049 6.40515 3.80532 6.27045 3.90374 6.13791C4.00216 6.00537 4.10345 5.87534 4.20797 5.74782C4.31286 5.62031 4.42062 5.49531 4.53125 5.37318C4.64224 5.25106 4.75575 5.13144 4.87249 5.0147C4.98922 4.89832 5.10848 4.78446 5.2306 4.67383C5.35309 4.56284 5.47773 4.45508 5.60524 4.35055C5.73276 4.24603 5.86279 4.14437 5.99533 4.04631C6.12787 3.94789 6.26293 3.85307 6.39978 3.76111C6.537 3.66952 6.67636 3.58151 6.81789 3.49674C6.95941 3.41162 7.10309 3.33044 7.24856 3.25285C7.39404 3.17491 7.54131 3.10091 7.69037 3.03015C7.83944 2.95975 7.9903 2.89294 8.1426 2.82972C8.2949 2.7665 8.44899 2.70723 8.60417 2.65156C8.7597 2.59624 8.91631 2.54452 9.07399 2.49639C9.23204 2.44861 9.3908 2.40479 9.55101 2.36456C9.71085 2.32433 9.87177 2.28841 10.0334 2.25608C10.1954 2.22412 10.3578 2.19574 10.5212 2.17167C10.6843 2.14725 10.8481 2.12713 11.0122 2.11097C11.1764 2.09481 11.3409 2.08259 11.5054 2.07469C11.6703 2.06643 11.8351 2.06248 12 2.06248C12.1652 2.06248 12.3301 2.06643 12.4946 2.07469C12.6595 2.08259 12.824 2.09481 12.9881 2.11097C13.1523 2.12713 13.3161 2.14725 13.4792 2.17167C13.6422 2.19574 13.805 2.22412 13.9666 2.25608C14.1282 2.28841 14.2892 2.32433 14.4494 2.36456C14.6092 2.40479 14.7683 2.44861 14.926 2.49639C15.0841 2.54452 15.2407 2.59624 15.3958 2.65156C15.5514 2.70723 15.7051 2.7665 15.8574 2.82972C16.0101 2.89294 16.1606 2.95975 16.31 3.03015C16.4591 3.10091 16.6063 3.17491 16.7518 3.25285C16.8973 3.33044 17.0406 3.41162 17.1821 3.49674C17.3236 3.58151 17.463 3.66952 17.6002 3.76111C17.7374 3.85307 17.8721 3.94789 18.0047 4.04631C18.1372 4.14437 18.2672 4.24603 18.3948 4.35055C18.5223 4.45508 18.6473 4.56284 18.7694 4.67383C18.8915 4.78446 19.0111 4.89832 19.1279 5.0147C19.2443 5.13144 19.3581 5.25106 19.4688 5.37318C19.5797 5.49531 19.6875 5.62031 19.792 5.74782C19.8966 5.87534 19.9982 6.00537 20.0963 6.13791C20.1947 6.27045 20.2895 6.40515 20.3815 6.54236C20.4731 6.67957 20.5611 6.81894 20.6458 6.96047C20.731 7.10199 20.8121 7.24531 20.8897 7.39078C20.9677 7.53626 21.0417 7.68353 21.1124 7.83259C21.1828 7.98202 21.2496 8.13252 21.3129 8.28518C21.3761 8.43748 21.4353 8.59121 21.491 8.74675C21.5463 8.90192 21.5981 9.05853 21.6462 9.21657C21.694 9.37426 21.7378 9.53338 21.778 9.69322C21.8182 9.85343 21.8542 10.0143 21.8865 10.176C21.9185 10.3376 21.9468 10.5003 21.9709 10.6634C21.9953 10.8265 22.0154 10.9903 22.0316 11.1544C22.0478 11.3186 22.06 11.4831 22.0679 11.648C22.0761 11.8125 22.0801 11.9773 22.0801 12.1426C22.0797 12.3074 22.0758 12.4723 22.0675 12.6368C22.0593 12.8017 22.0467 12.9659 22.0305 13.13C22.014 13.2942 21.9939 13.458 21.9695 13.621C21.945 13.7841 21.9167 13.9465 21.8843 14.1081C21.852 14.2697 21.8161 14.4307 21.7759 14.5905C21.7356 14.7507 21.6915 14.9095 21.6433 15.0671C21.5955 15.2252 21.5435 15.3814 21.4881 15.5366C21.4325 15.6921 21.3728 15.8459 21.3096 15.9982C21.2464 16.1505 21.1796 16.301 21.1088 16.45C21.0384 16.5991 20.9641 16.7464 20.8865 16.8919C20.8085 17.0373 20.7274 17.1807 20.6426 17.3222C20.5575 17.4637 20.4695 17.6027 20.3779 17.7399C20.2859 17.8771 20.1911 18.0118 20.0927 18.144C19.9946 18.2766 19.893 18.4066 19.7884 18.5341C19.6839 18.6616 19.5761 18.7863 19.4655 18.9084C19.3545 19.0309 19.241 19.1501 19.1243 19.2669C19.0075 19.3832 18.8883 19.4971 18.7662 19.6077C18.644 19.7184 18.519 19.8261 18.3915 19.931C18.264 20.0355 18.1343 20.1368 18.0018 20.2353C17.8693 20.3337 17.7346 20.4285 17.5973 20.5201C17.4605 20.6117 17.3211 20.7 17.1796 20.7848C17.0384 20.8696 16.8948 20.9511 16.7496 21.0287C16.6042 21.1067 16.4569 21.1807 16.3078 21.2514C16.1588 21.3218 16.0079 21.389 15.8556 21.4522C15.7033 21.5154 15.5496 21.5747 15.3944 21.6304C15.2392 21.686 15.0826 21.7378 14.9249 21.7859C14.7672 21.8337 14.6081 21.8779 14.4483 21.9181C14.2884 21.9583 14.1275 21.9946 13.9659 22.0269C13.8042 22.0592 13.6415 22.0876 13.4784 22.112C13.3154 22.1361 13.1519 22.1566 12.9878 22.1728C12.8236 22.1893 12.6591 22.2015 12.4946 22.2097C12.3297 22.218 12.1649 22.2223 12 22.2223ZM12 7.82254C12.0629 7.82254 12.1257 7.8193 12.1882 7.8132C12.2507 7.80709 12.3129 7.79775 12.3746 7.78554C12.4364 7.77333 12.4971 7.75788 12.5575 7.73992C12.6175 7.7216 12.6767 7.70041 12.7349 7.67634C12.7931 7.65228 12.8499 7.62534 12.9052 7.59588C12.9605 7.56607 13.0144 7.53374 13.0668 7.4989C13.1189 7.46406 13.1695 7.4267 13.218 7.38683C13.2669 7.3466 13.3132 7.30458 13.3578 7.26004C13.4023 7.21549 13.4443 7.16916 13.4842 7.12067C13.5241 7.07182 13.5614 7.02153 13.5966 6.96909C13.6315 6.917 13.6638 6.86312 13.6932 6.80745C13.7231 6.75213 13.75 6.69538 13.7741 6.63719C13.7981 6.579 13.8193 6.52009 13.8373 6.45975C13.8556 6.39976 13.871 6.3387 13.8833 6.27692C13.8955 6.21549 13.9048 6.15335 13.9109 6.09049C13.917 6.02799 13.9203 5.96549 13.9203 5.90264C13.9203 5.83942 13.917 5.77692 13.9109 5.71442C13.9048 5.65156 13.8955 5.58942 13.8833 5.52799C13.871 5.46621 13.8556 5.40515 13.8373 5.34516C13.8193 5.28482 13.7981 5.22591 13.7741 5.16772C13.75 5.10953 13.7231 5.05278 13.6932 4.99746C13.6638 4.94179 13.6315 4.88791 13.5966 4.83583C13.5614 4.78338 13.5241 4.7331 13.4842 4.6846C13.4443 4.63575 13.4023 4.58942 13.3578 4.54488C13.3132 4.50034 13.2669 4.45831 13.218 4.41844C13.1695 4.37857 13.1189 4.34085 13.0668 4.30601C13.0144 4.27117 12.9605 4.23884 12.9052 4.20903C12.8499 4.17957 12.7931 4.15264 12.7349 4.12857C12.6767 4.1045 12.6175 4.08331 12.5575 4.06499C12.4971 4.04703 12.4364 4.03159 12.3746 4.01937C12.3129 4.00716 12.2507 3.99782 12.1882 3.99172C12.1257 3.98561 12.0629 3.98238 12 3.98238C11.9371 3.98238 11.8746 3.98561 11.8118 3.99172C11.7493 3.99782 11.6871 4.00716 11.6254 4.01937C11.5639 4.03159 11.5029 4.04703 11.4429 4.06499C11.3825 4.08331 11.3233 4.1045 11.2654 4.12857C11.2073 4.15264 11.1505 4.17957 11.0948 4.20903C11.0395 4.23884 10.9856 4.27117 10.9335 4.30601C10.8811 4.34085 10.8308 4.37857 10.782 4.41844C10.7335 4.45831 10.6868 4.50034 10.6426 4.54488C10.5981 4.58942 10.5557 4.63575 10.5158 4.6846C10.4759 4.7331 10.4386 4.78338 10.4037 4.83583C10.3689 4.88791 10.3366 4.94179 10.3068 4.99746C10.2773 5.05278 10.2504 5.10953 10.2263 5.16772C10.2022 5.22591 10.181 5.28482 10.1627 5.34516C10.1444 5.40515 10.1293 5.46621 10.1171 5.52799C10.1049 5.58942 10.0955 5.65156 10.0894 5.71442C10.0833 5.77692 10.0801 5.83942 10.0801 5.90264C10.0801 5.96549 10.0833 6.02799 10.0894 6.09049C10.0955 6.15335 10.1049 6.21549 10.1171 6.27692C10.1293 6.3387 10.1444 6.39976 10.1627 6.45975C10.181 6.52009 10.2022 6.579 10.2263 6.63719C10.2504 6.69538 10.2773 6.75213 10.3068 6.80745C10.3366 6.86312 10.3689 6.917 10.4037 6.96909C10.4386 7.02153 10.4759 7.07182 10.5158 7.12067C10.5557 7.16916 10.5981 7.21549 10.6426 7.26004C10.6868 7.30458 10.7335 7.3466 10.782 7.38683C10.8308 7.4267 10.8811 7.46406 10.9335 7.4989C10.9856 7.53374 11.0395 7.56607 11.0948 7.59588C11.1505 7.62534 11.2073 7.65228 11.2654 7.67634C11.3233 7.70041 11.3825 7.7216 11.4429 7.73992C11.5029 7.75788 11.5639 7.77333 11.6254 7.78554C11.6871 7.79775 11.7493 7.80709 11.8118 7.8132C11.8746 7.8193 11.9371 7.82254 12 7.82254ZM17.1422 7.83223L12.1189 8.5632C12.0395 8.57469 11.9605 8.57469 11.8815 8.5632L6.85848 7.83223C6.79598 7.82325 6.73348 7.82074 6.67062 7.82397C6.60776 7.82756 6.54598 7.8369 6.48491 7.85271C6.42385 7.86815 6.36494 7.88935 6.30819 7.91664C6.25144 7.94394 6.19792 7.97627 6.14763 8.01399C6.09698 8.0517 6.05101 8.09373 6.00862 8.14078C5.96659 8.18748 5.9296 8.23777 5.89727 8.292C5.8653 8.34624 5.83872 8.403 5.81753 8.46226C5.7967 8.52153 5.78161 8.58223 5.77227 8.64473C5.76329 8.70687 5.76042 8.76937 5.76365 8.83223C5.76688 8.89509 5.77622 8.95723 5.79167 9.01794C5.80711 9.079 5.8283 9.13791 5.85524 9.19502C5.88218 9.25177 5.91451 9.30529 5.95223 9.35594C5.98994 9.40659 6.03197 9.45292 6.07866 9.49495C6.12536 9.53733 6.17565 9.57433 6.22953 9.60666C6.28376 9.63899 6.34016 9.66593 6.39943 9.68712C6.45869 9.70831 6.5194 9.7234 6.5819 9.73274L9.67385 10.1824C9.70187 10.1868 9.72845 10.1954 9.75323 10.209C9.77802 10.2227 9.79993 10.2403 9.81825 10.2618C9.83693 10.283 9.85129 10.3071 9.86099 10.3337C9.87105 10.3603 9.87608 10.3879 9.87608 10.4163V14.1207L9.79382 14.4993L7.8107 18.8588C7.77909 18.9131 7.75287 18.9702 7.7324 19.0298C7.71193 19.0894 7.6972 19.1505 7.68894 19.213C7.68032 19.2755 7.67816 19.338 7.68175 19.4008C7.6857 19.4637 7.69576 19.5258 7.71157 19.5869C7.72773 19.6476 7.74964 19.7065 7.7773 19.7633C7.80496 19.8197 7.83764 19.8732 7.87572 19.9235C7.91415 19.9738 7.95654 20.0197 8.00395 20.0614C8.05101 20.1031 8.10201 20.1401 8.15625 20.1717C8.21085 20.2033 8.26796 20.2295 8.32723 20.25C8.38685 20.2708 8.44792 20.2852 8.51042 20.2938C8.57292 20.3021 8.63578 20.3046 8.69864 20.3006C8.76149 20.297 8.82328 20.287 8.88434 20.2708C8.9454 20.255 9.00431 20.2331 9.0607 20.2054C9.11746 20.1778 9.17098 20.1447 9.22091 20.1067C9.27119 20.0686 9.31717 20.0258 9.35884 19.9788C9.40086 19.9314 9.4375 19.8807 9.46947 19.8261L11.768 15.0431C11.7902 14.9967 11.8229 14.9601 11.8664 14.9332C11.9095 14.9059 11.9569 14.8922 12.0083 14.8922C12.0593 14.8922 12.1067 14.9059 12.1498 14.9335C12.1932 14.9608 12.2259 14.9975 12.2478 15.0438L14.5305 19.8261C14.5621 19.8804 14.5991 19.931 14.6408 19.9781C14.6828 20.0251 14.7288 20.0675 14.7791 20.1056C14.829 20.1437 14.8825 20.1763 14.9393 20.204C14.9957 20.2313 15.0546 20.2529 15.1153 20.269C15.1764 20.2848 15.2381 20.2949 15.301 20.2985C15.3639 20.3024 15.4264 20.2999 15.4889 20.2913C15.551 20.2827 15.6121 20.2683 15.6713 20.2478C15.731 20.2273 15.7881 20.2011 15.8423 20.1695C15.8966 20.1379 15.9476 20.1013 15.9946 20.0596C16.0417 20.0179 16.0844 19.972 16.1225 19.9217C16.1606 19.8717 16.1936 19.8186 16.2213 19.7618C16.2489 19.7054 16.2708 19.6469 16.287 19.5858C16.3032 19.5251 16.3132 19.4633 16.3172 19.4005C16.3211 19.3376 16.319 19.2751 16.3103 19.2126C16.3021 19.1501 16.2877 19.0894 16.2676 19.0298C16.2471 18.9702 16.2213 18.9131 16.1897 18.8588L14.1753 14.4303L14.1243 14.195V10.4163C14.1243 10.3879 14.1293 10.3603 14.139 10.3337C14.1491 10.3071 14.1631 10.2834 14.1818 10.2618C14.2004 10.2403 14.222 10.2227 14.2471 10.209C14.2719 10.1954 14.2985 10.1868 14.3265 10.1824L17.4177 9.73274C17.4802 9.7234 17.5409 9.70831 17.6002 9.68712C17.6595 9.66593 17.7159 9.63935 17.7701 9.60702C17.824 9.57469 17.8743 9.53733 17.921 9.49531C17.9677 9.45292 18.0101 9.40659 18.0474 9.3563C18.0851 9.30565 18.1175 9.25213 18.1444 9.19538C18.1713 9.13827 18.1925 9.07936 18.208 9.01866C18.2234 8.95759 18.2328 8.89545 18.236 8.83295C18.2392 8.77009 18.2364 8.70723 18.2274 8.64509C18.2184 8.58295 18.2033 8.52189 18.1825 8.46262C18.1616 8.40335 18.1351 8.3466 18.1027 8.29272C18.0708 8.23848 18.0334 8.1882 17.9914 8.14114C17.9494 8.09445 17.9034 8.05206 17.8527 8.01435C17.8024 7.97663 17.7489 7.9443 17.6922 7.917C17.6354 7.89006 17.5765 7.86851 17.5158 7.85271C17.4547 7.83726 17.393 7.82756 17.3301 7.82433C17.2672 7.82074 17.2047 7.82361 17.1422 7.83223Z" fill="black"/>
</svg>
