<svg width="29" height="29" viewBox="0 0 29 29" fill="none" xmlns="http://www.w3.org/2000/svg">
<g clip-path="url(#clip0_2002_479)">
<path d="M7.07151 17.6789L7.07151 14.9742L10.4627 14.9772L10.4627 13.3096L7.07151 13.3125L7.07151 10.6079L3.53598 14.1434L7.07151 17.6789ZM17.6781 21.2145L14.9734 21.2145L14.9764 17.8233H13.3088L13.3117 21.2145L10.607 21.2145L14.1426 24.75L17.6781 21.2145ZM21.2136 10.6079L21.2136 13.3125L17.8225 13.3096L17.8225 14.9772L21.2136 14.9742L21.2136 17.6789L24.7492 14.1434L21.2136 10.6079ZM10.607 7.07233L13.3117 7.07233L13.3088 10.4635H14.9764L14.9734 7.07233L17.6781 7.07233L14.1426 3.5368L10.607 7.07233Z" fill="black"/>
</g>
<defs>
<clipPath id="clip0_2002_479">
<rect width="20" height="20" fill="white" transform="translate(14.1426 28.2852) rotate(-135)"/>
</clipPath>
</defs>
</svg>
